HIERARCHY
ROOT Hips
{
	OFFSET 0.000000 0.000000 0.000000
	CHANNELS 6 Xposition Yposition Zposition Xrotation Yrotation Zrotation
	JOINT C_ctrl
	{
		OFFSET 0.000000 35.040482 -0.000011
		CHANNELS 3 Xrotation Yrotation Zrotation
		JOINT Bip01
		{
			OFFSET -41.537640 41.789009 -0.000007
			CHANNELS 3 Xrotation Yrotation Zrotation
			JOINT Bip01_Pelvis
			{
				OFFSET -2.462887 0.000000 0.000000
				CHANNELS 3 Xrotation Yrotation Zrotation
				JOINT BN_Tail_01
				{
					OFFSET -11.399368 7.351341 -0.000013
					CHANNELS 3 Xrotation Yrotation Zrotation
					JOINT BN_Tail_02
					{
						OFFSET -11.365196 -0.343025 0.000012
						CHANNELS 3 Xrotation Yrotation Zrotation
						JOINT BN_Tail_03
						{
							OFFSET -15.076256 -0.454979 0.000017
							CHANNELS 3 Xrotation Yrotation Zrotation
							JOINT BN_Tail_04
							{
								OFFSET -17.395691 -0.525002 0.000016
								CHANNELS 3 Xrotation Yrotation Zrotation
								JOINT BN_Tail_05
								{
									OFFSET -16.699837 -0.504005 0.000016
									CHANNELS 3 Xrotation Yrotation Zrotation
									End Site
									{
										OFFSET 0.503998 -16.699829 0.000067
									}
								}
							}
						}
					}
				}
				JOINT Bip01_Spine
				{
					OFFSET 8.297798 5.916809 -0.000020
					CHANNELS 3 Xrotation Yrotation Zrotation
					JOINT Bip01_R_Thigh
					{
						OFFSET -8.297779 -5.916794 10.541781
						CHANNELS 3 Xrotation Yrotation Zrotation
						JOINT Bip01_R_Calf
						{
							OFFSET 5.631542 -22.906792 0.862690
							CHANNELS 3 Xrotation Yrotation Zrotation
							JOINT Bip01_R_HorseLink
							{
								OFFSET -16.984341 -19.231926 -3.555767
								CHANNELS 3 Xrotation Yrotation Zrotation
								JOINT Bip01_R_Foot
								{
									OFFSET 4.290367 -24.783146 0.578056
									CHANNELS 3 Xrotation Yrotation Zrotation
									JOINT Bip01_R_Toe0
									{
										OFFSET 3.561211 -5.815116 0.760802
										CHANNELS 3 Xrotation Yrotation Zrotation
										JOINT Bip01_R_Toe0Nub
										{
											OFFSET 16.135469 0.002017 1.534789
											CHANNELS 3 Xrotation Yrotation Zrotation
											End Site
											{
												OFFSET -0.000002 16.208284 -0.000056
											}
										}
									}
								}
							}
						}
					}
					JOINT Bip01_L_Thigh
					{
						OFFSET -8.297813 -5.916832 -10.541739
						CHANNELS 3 Xrotation Yrotation Zrotation
						JOINT Bip01_L_Calf
						{
							OFFSET 5.631535 -22.906792 -0.862625
							CHANNELS 3 Xrotation Yrotation Zrotation
							JOINT Bip01_L_HorseLink
							{
								OFFSET -16.984318 -19.231949 3.555875
								CHANNELS 3 Xrotation Yrotation Zrotation
								JOINT Bip01_L_Foot
								{
									OFFSET 4.290367 -24.783169 -0.577965
									CHANNELS 3 Xrotation Yrotation Zrotation
									JOINT Bip01_L_Toe0
									{
										OFFSET 3.561245 -5.815111 -0.760799
										CHANNELS 3 Xrotation Yrotation Zrotation
										JOINT Bip01_L_Toe0Nub
										{
											OFFSET 6.574303 -0.000005 -1.538561
											CHANNELS 3 Xrotation Yrotation Zrotation
											End Site
											{
												OFFSET 0.000004 -6.751935 0.000023
											}
										}
									}
								}
							}
						}
					}
					JOINT Bip01_Spine1
					{
						OFFSET 20.556803 -4.626213 -0.000025
						CHANNELS 3 Xrotation Yrotation Zrotation
						JOINT Saddle
						{
							OFFSET 17.608810 18.174690 -0.000143
							CHANNELS 3 Xrotation Yrotation Zrotation
							End Site
							{
								OFFSET -0.000063 -0.000061 -22.448387
							}
						}
						JOINT BN_center
						{
							OFFSET 10.743275 -13.417107 -0.172041
							CHANNELS 3 Xrotation Yrotation Zrotation
							End Site
							{
								OFFSET 22.434088 0.553078 -0.579614
							}
						}
						JOINT Bip01_Spine2
						{
							OFFSET 24.765072 -2.054115 -0.000032
							CHANNELS 3 Xrotation Yrotation Zrotation
							JOINT Handle
							{
								OFFSET 63.735676 16.430748 -16.052464
								CHANNELS 3 Xrotation Yrotation Zrotation
								JOINT IK_Chain01
								{
									OFFSET -4.713058 -6.020439 0.185448
									CHANNELS 3 Xrotation Yrotation Zrotation
									End Site
									{
										OFFSET -0.000023 -0.000023 -7.648071
									}
								}
							}
							JOINT BN_hair04_01
							{
								OFFSET 1.987491 16.256981 -2.049672
								CHANNELS 3 Xrotation Yrotation Zrotation
								JOINT BN_hair04_02
								{
									OFFSET -1.318762 -3.831451 -6.174704
									CHANNELS 3 Xrotation Yrotation Zrotation
									JOINT BN_hair04_03
									{
										OFFSET -0.827490 -5.886627 -5.656666
										CHANNELS 3 Xrotation Yrotation Zrotation
										End Site
										{
											OFFSET -2.658262 5.010620 -5.929780
										}
									}
								}
							}
							JOINT Bip01_Neck
							{
								OFFSET 25.574577 9.433014 -0.000084
								CHANNELS 3 Xrotation Yrotation Zrotation
								JOINT Bip01_R_Clavicle
								{
									OFFSET -16.535652 0.011192 6.705692
									CHANNELS 3 Xrotation Yrotation Zrotation
									JOINT Bip01_R_UpperArm
									{
										OFFSET 20.272621 -12.959984 2.510816
										CHANNELS 3 Xrotation Yrotation Zrotation
										JOINT Bip01_R_Forearm
										{
											OFFSET -13.633509 -15.503704 -0.653585
											CHANNELS 3 Xrotation Yrotation Zrotation
											JOINT Bip01_R_Hand
											{
												OFFSET 2.580030 -27.804676 -1.136415
												CHANNELS 3 Xrotation Yrotation Zrotation
												JOINT Bip01_R_Finger0
												{
													OFFSET -0.281744 -19.659061 -0.398649
													CHANNELS 3 Xrotation Yrotation Zrotation
													JOINT Bip01_Xtra02
													{
														OFFSET 4.152210 -5.712314 0.433813
														CHANNELS 3 Xrotation Yrotation Zrotation
														JOINT Bip01_Xtra02Nub
														{
															OFFSET 15.457960 0.041654 0.507982
															CHANNELS 3 Xrotation Yrotation Zrotation
															End Site
															{
																OFFSET -15.421730 -0.157725 -1.163459
															}
														}
													}
													JOINT Bip01_R_Finger0Nub
													{
														OFFSET 8.362326 -9.718440 -0.143142
														CHANNELS 3 Xrotation Yrotation Zrotation
														End Site
														{
															OFFSET -1.213036 -0.198171 9.872291
														}
													}
												}
											}
										}
									}
								}
								JOINT Bip01_L_Clavicle
								{
									OFFSET -16.535673 0.011162 -6.705583
									CHANNELS 3 Xrotation Yrotation Zrotation
									JOINT Bip01_L_UpperArm
									{
										OFFSET 20.272615 -12.959999 -2.510836
										CHANNELS 3 Xrotation Yrotation Zrotation
										JOINT Bip01_L_Forearm
										{
											OFFSET -13.633495 -15.503681 0.653678
											CHANNELS 3 Xrotation Yrotation Zrotation
											JOINT Bip01_L_Hand
											{
												OFFSET 2.579988 -27.804686 1.136487
												CHANNELS 3 Xrotation Yrotation Zrotation
												JOINT Bip01_L_Finger0
												{
													OFFSET -0.281765 -19.659058 0.398696
													CHANNELS 3 Xrotation Yrotation Zrotation
													JOINT Bip01_Xtra01
													{
														OFFSET 4.083549 -5.738758 -0.666714
														CHANNELS 3 Xrotation Yrotation Zrotation
														JOINT Bip01_Xtra01Nub
														{
															OFFSET 6.758158 -0.395525 -0.023239
															CHANNELS 3 Xrotation Yrotation Zrotation
															End Site
															{
																OFFSET 6.764923 -0.254147 -0.029908
															}
														}
													}
													JOINT Bip01_L_Finger0Nub
													{
														OFFSET -0.012636 -9.629153 0.045740
														CHANNELS 3 Xrotation Yrotation Zrotation
														End Site
														{
															OFFSET 0.988407 0.004791 8.293357
														}
													}
												}
											}
										}
									}
								}
								JOINT BN_hair03_01
								{
									OFFSET -5.894140 16.270622 -2.498433
									CHANNELS 3 Xrotation Yrotation Zrotation
									JOINT BN_hair03_02
									{
										OFFSET -0.189278 -7.800507 -6.219162
										CHANNELS 3 Xrotation Yrotation Zrotation
										JOINT BN_hair03_03
										{
											OFFSET 0.612345 -10.844475 -3.370718
											CHANNELS 3 Xrotation Yrotation Zrotation
											End Site
											{
												OFFSET -2.273296 2.862007 -10.769416
											}
										}
									}
								}
								JOINT Bip01_Neck1
								{
									OFFSET 9.383755 11.908699 -0.000007
									CHANNELS 3 Xrotation Yrotation Zrotation
									JOINT BN_hair02_01
									{
										OFFSET 9.126320 18.808022 -1.420810
										CHANNELS 3 Xrotation Yrotation Zrotation
										JOINT BN_hair02_02
										{
											OFFSET 0.393478 -5.181091 -5.248574
											CHANNELS 3 Xrotation Yrotation Zrotation
											JOINT BN_hair02_03
											{
												OFFSET 0.762280 -8.167076 -0.230047
												CHANNELS 3 Xrotation Yrotation Zrotation
												End Site
												{
													OFFSET -0.025837 -1.251419 -8.109770
												}
											}
										}
									}
									JOINT Bip01_Head
									{
										OFFSET 14.266129 10.475403 -0.000008
										CHANNELS 3 Xrotation Yrotation Zrotation
										JOINT BN_Reins_01
										{
											OFFSET 18.547455 -15.740112 -0.000035
											CHANNELS 3 Xrotation Yrotation Zrotation
											JOINT BN_Reins_02
											{
												OFFSET -5.372810 -5.884506 0.000028
												CHANNELS 3 Xrotation Yrotation Zrotation
												JOINT BN_Reins_03
												{
													OFFSET -6.395866 -15.947449 0.000070
													CHANNELS 3 Xrotation Yrotation Zrotation
													JOINT BN_Halter_R_01
													{
														OFFSET -1.234055 -3.096100 7.096737
														CHANNELS 3 Xrotation Yrotation Zrotation
														End Site
														{
															OFFSET 10.514435 -4.176861 -0.000004
														}
													}
													JOINT BN_Halter_L_01
													{
														OFFSET -1.234062 -3.096146 -7.096726
														CHANNELS 3 Xrotation Yrotation Zrotation
														End Site
														{
															OFFSET -10.514435 4.176865 -0.000000
														}
													}
													JOINT BN_Reins_04
													{
														OFFSET -6.737644 -16.971684 0.000074
														CHANNELS 3 Xrotation Yrotation Zrotation
														JOINT BN_Halter_R_02
														{
															OFFSET -4.688869 -11.781956 7.096771
															CHANNELS 3 Xrotation Yrotation Zrotation
															End Site
															{
																OFFSET 14.669624 -5.827511 -0.000006
															}
														}
														JOINT BN_Halter_L_02
														{
															OFFSET -4.688892 -11.782017 -7.096693
															CHANNELS 3 Xrotation Yrotation Zrotation
															End Site
															{
																OFFSET -14.669624 5.827507 -0.000002
															}
														}
														JOINT BN_Reins_05
														{
															OFFSET -6.822578 -16.971161 0.000074
															CHANNELS 3 Xrotation Yrotation Zrotation
															JOINT BN_Reins_06
															{
																OFFSET -6.140354 -15.095148 0.000066
																CHANNELS 3 Xrotation Yrotation Zrotation
																End Site
																{
																	OFFSET -15.095150 6.140352 -0.000002
																}
															}
														}
													}
												}
											}
										}
										JOINT BN_hair01_01
										{
											OFFSET 8.957344 8.870956 0.112121
											CHANNELS 3 Xrotation Yrotation Zrotation
											JOINT BN_hair01_02
											{
												OFFSET 6.002075 -2.962952 -3.121264
												CHANNELS 3 Xrotation Yrotation Zrotation
												End Site
												{
													OFFSET 5.917702 3.813591 -2.232396
												}
											}
										}
										JOINT BN_Eyebrow_R
										{
											OFFSET 11.795959 -0.430496 4.449781
											CHANNELS 3 Xrotation Yrotation Zrotation
											JOINT Bip01_Xtra06Nub
											{
												OFFSET 2.936661 -0.262573 3.246701
												CHANNELS 3 Xrotation Yrotation Zrotation
												End Site
												{
													OFFSET 2.768745 0.208199 3.394807
												}
											}
										}
										JOINT BN_Eyebrow_L
										{
											OFFSET 11.586395 -0.445618 -4.441728
											CHANNELS 3 Xrotation Yrotation Zrotation
											JOINT Bip01_Xtra05Nub
											{
												OFFSET 3.244698 -0.349442 -4.416700
												CHANNELS 3 Xrotation Yrotation Zrotation
												End Site
												{
													OFFSET 3.053162 0.072495 -4.564033
												}
											}
										}
										JOINT Bip01_R_Ear_01
										{
											OFFSET 7.142960 7.567184 4.311657
											CHANNELS 3 Xrotation Yrotation Zrotation
											JOINT Bip01_Xtra04Nub
											{
												OFFSET 9.464531 9.264214 1.682953
												CHANNELS 3 Xrotation Yrotation Zrotation
												End Site
												{
													OFFSET 8.448181 10.159340 1.910823
												}
											}
										}
										JOINT Bip01__L_Ear_01
										{
											OFFSET 7.214943 7.717056 -4.356771
											CHANNELS 3 Xrotation Yrotation Zrotation
											JOINT Bip01_Xtra03Nub
											{
												OFFSET 9.230225 8.944366 -2.322746
												CHANNELS 3 Xrotation Yrotation Zrotation
												End Site
												{
													OFFSET 8.170288 9.841324 -2.643566
												}
											}
										}
										JOINT Bip01_Jaw
										{
											OFFSET 9.196068 -4.110695 -0.000013
											CHANNELS 3 Xrotation Yrotation Zrotation
											JOINT Bip01_Ponytail1Nub
											{
												OFFSET 10.976463 -21.082108 -0.000053
												CHANNELS 3 Xrotation Yrotation Zrotation
												End Site
												{
													OFFSET 11.247093 -20.938980 0.000113
												}
											}
										}
										JOINT Bip01_HeadNub
										{
											OFFSET 29.954575 -18.249489 -0.000063
											CHANNELS 3 Xrotation Yrotation Zrotation
											End Site
											{
												OFFSET -9.198448 -13.366348 0.000168
											}
										}
									}
								}
							}
						}
					}
				}
			}
		}
	}
}
MOTION
Frames: 4
Frame Time: 0.033333
0.000000 0.000000 0.000000 0.000008 0.000000 -0.000000 -0.000000 0.000000 -0.000000 0.000000 0.264593 0.000001 -0.003516 -0.000000 -0.000022 -4.155525 3.516105 37.971009 0.140057 -0.903992 22.679848 0.309462 -0.877861 17.652924 -0.162629 -1.482338 7.603542 0.024381 -1.566689 -0.293069 0.143675 0.119012 12.875935 -11.780963 6.348196 -3.992985 1.699433 -0.034796 -8.618259 0.004626 0.000283 -0.023426 11.032385 -4.050729 0.854958 0.000740 -0.000020 -0.003726 0.000101 -0.000139 0.000004 7.015911 -5.499040 -21.079975 0.155600 0.009605 0.789649 0.587230 0.047539 2.984253 -9.153036 2.698718 5.015787 -0.000887 0.000006 -0.003709 -0.008661 0.000482 -0.038577 0.479069 1.466512 -13.415344 0.917530 -0.020776 6.784390 -2.617899 -0.251946 0.077595 -0.943985 3.381691 -7.277477 0.000078 -0.000112 -0.000056 -0.000052 -0.014927 0.015041 -0.008353 0.000146 0.012192 6.002584 -1.692356 0.782184 7.763352 -4.131756 4.315752 3.827430 1.042292 -26.665588 -3.227114 -3.024764 25.560924 -12.648347 -2.930147 5.967033 0.004667 -0.241912 5.901746 10.837170 -0.475057 -6.508500 3.844265 0.133268 1.768839 -1.002746 -0.004335 -0.069896 -0.781893 0.140319 -0.478837 -0.804180 0.123448 -0.482658 -3.400994 -2.916074 27.388277 10.169113 -6.105284 5.828470 -0.005031 0.247049 6.026499 -7.617654 -2.172409 -1.523270 -5.953884 -0.076728 0.715852 2.691511 2.076440 -0.752308 0.028232 0.072122 2.451899 -0.000914 0.100573 2.451956 2.159043 0.232391 -0.300345 4.851605 0.364858 -0.451293 4.757092 -0.201106 2.872900 -0.180509 1.542868 -29.356406 -0.045008 0.001631 0.046335 5.405610 0.567895 -2.417108 3.361256 0.302314 -0.160653 5.280814 -2.573929 -0.399479 -0.000029 0.000324 33.480068 -0.441786 -0.458728 -72.796136 -0.000060 -0.000072 -21.993998 0.000020 -0.000008 -0.026805 0.000002 -0.000016 0.012747 -0.000097 -0.000109 -34.639905 0.000035 0.000015 0.015168 0.000025 -0.000010 0.012721 -0.000051 -0.000053 -24.223462 0.000013 -0.000014 -0.000044 -0.073028 0.030629 0.020256 10.096180 5.718371 -2.218148 -9.804287 -18.623243 1.171811 0.024178 -0.030010 11.786606 9.190350 11.317404 -6.204219 0.023233 -0.032342 11.715987 -8.736194 -44.212426 -58.795450 0.050296 0.015079 11.755985 0.866566 45.208182 -55.392117 0.050136 0.014752 11.743118 -0.512214 2.525785 7.739842 -0.002008 -0.023992 11.750652 0.000071 -0.000033 11.750673 
0.000000 0.000000 0.000000 0.000008 0.000000 -0.000000 -0.000000 0.000000 -0.000000 0.000000 0.187936 -0.000006 -0.003516 -0.000000 -0.000022 -4.283620 3.642733 38.038942 0.138172 -0.841595 22.688946 0.273809 -0.820477 17.645357 -0.162711 -1.479599 7.570411 0.022797 -1.514219 -0.338824 0.143675 0.115214 12.645131 -11.916322 6.158747 -3.215568 1.830560 -0.048153 -9.285812 -0.017197 -0.000923 0.087273 10.967043 -3.814292 0.837768 0.000740 -0.000021 -0.003726 0.000101 -0.000137 0.000004 7.214278 -5.467838 -20.439580 0.031850 0.001793 0.161542 0.635835 0.052857 3.231874 -9.274062 2.735054 4.991731 -0.000887 0.000006 -0.003709 -0.008661 0.000483 -0.038577 0.455746 1.363413 -13.148263 0.917530 -0.020777 6.784391 -2.256695 -0.243021 0.069848 -1.569797 3.229206 -7.537632 0.000078 -0.000113 -0.000056 -0.000052 -0.014927 0.015041 -0.008356 0.000146 0.012193 6.486277 -1.077996 0.024308 8.581733 -4.132266 4.170005 3.828606 1.033155 -26.669011 -3.226341 -3.007862 25.572423 -11.532552 -2.654549 5.457749 0.011033 -0.315423 7.701033 10.299714 -0.359177 -7.476940 3.844266 0.133268 1.768840 -1.002798 -0.004209 -0.069924 -0.781921 0.140320 -0.478839 -0.804180 0.123448 -0.482657 -3.398727 -2.894229 27.391097 11.408766 -5.835415 4.949619 -0.011825 0.323157 7.889639 -8.239401 -1.838499 -2.238781 -5.953883 -0.076729 0.715853 2.691464 2.076515 -0.752293 0.028261 0.072122 2.451900 -0.000913 0.100574 2.451955 2.159030 0.232389 -0.300342 5.252389 0.674221 -1.380598 5.283884 -0.099102 2.780730 -0.185464 1.546778 -29.356385 -0.045050 0.001622 0.046339 6.380296 0.691280 -3.550496 3.549273 0.313961 -0.215415 5.151392 -2.158341 -0.187889 -0.000029 0.000325 33.480071 -0.441787 -0.458728 -72.796136 -0.000060 -0.000072 -21.994003 0.000020 -0.000008 -0.026807 0.000003 -0.000016 0.012743 -0.000096 -0.000109 -34.639909 0.000036 0.000015 0.015163 0.000025 -0.000010 0.012721 -0.000051 -0.000053 -24.223466 0.000012 -0.000014 -0.000044 -0.073029 0.030626 0.020258 11.529910 6.587758 -3.220540 -9.857728 -18.746940 1.158273 0.024195 -0.030002 11.786633 9.494080 11.648114 -6.425976 0.023250 -0.032340 11.715969 -8.736195 -44.212426 -58.795457 0.050309 0.015100 11.756000 0.866558 45.208165 -55.392141 0.050149 0.014776 11.743119 -0.481480 2.491971 7.607823 -0.001991 -0.024013 11.750655 0.000072 -0.000033 11.750673 
0.000000 0.000000 0.000000 0.000008 0.000000 -0.000000 -0.000000 0.000000 -0.000000 0.000000 0.120636 0.000001 -0.003516 -0.000000 -0.000022 -4.388413 3.747297 38.104546 0.136263 -0.778415 22.698175 0.261576 -0.736471 17.645022 -0.163895 -1.440298 7.545744 0.022637 -1.508925 -0.374185 0.143675 0.114857 12.380232 -12.061380 5.814892 -2.492354 1.939523 -0.060425 -9.841131 -0.030730 -0.001701 0.155990 10.944458 -3.481635 0.807929 0.000740 -0.000020 -0.003726 0.000101 -0.000137 0.000004 7.394642 -5.422465 -19.824718 -0.073991 -0.003812 -0.375281 0.677217 0.057546 3.442751 -9.350726 2.738176 4.968281 -0.000887 0.000005 -0.003709 -0.008661 0.000482 -0.038577 0.426740 1.235185 -12.843221 0.917530 -0.020777 6.784391 -1.891952 -0.234062 0.061954 -2.241502 3.055660 -7.825951 0.000078 -0.000113 -0.000055 -0.000052 -0.014927 0.015042 -0.008357 0.000157 0.012252 6.660041 -0.443622 -0.687436 9.410984 -4.130395 4.015948 3.830257 1.020340 -26.676006 -3.222613 -2.989339 25.590175 -10.346025 -2.314105 5.000046 0.019408 -0.386395 9.443339 9.734368 -0.217915 -8.410201 3.844265 0.133269 1.768839 -1.002746 -0.004336 -0.069896 -0.781948 0.140320 -0.478841 -0.804180 0.123450 -0.482657 -3.396938 -2.877023 27.393317 12.725819 -5.499995 4.065120 -0.020899 0.397569 9.717313 -8.881198 -1.496671 -2.902065 -5.953884 -0.076728 0.715853 2.691491 2.076441 -0.752310 0.028288 0.072122 2.451899 -0.000914 0.100573 2.451955 2.158998 0.232390 -0.300342 5.429736 0.958338 -2.256043 5.817798 0.004902 2.679470 -0.189367 1.549858 -29.364110 -0.045113 0.001612 0.046332 7.191030 0.796053 -4.599374 4.099394 0.252948 -0.958095 4.986214 -1.682663 0.040287 -0.000029 0.000324 33.480071 -0.441786 -0.458728 -72.796143 -0.000060 -0.000072 -21.993998 0.000020 -0.000008 -0.026802 0.000003 -0.000016 0.012750 -0.000096 -0.000110 -34.639899 0.000035 0.000015 0.015165 0.000025 -0.000010 0.012720 -0.000051 -0.000053 -24.223462 0.000013 -0.000014 -0.000044 -0.073028 0.030626 0.020256 12.988625 7.435915 -4.253549 -9.911769 -18.871823 1.144488 0.024211 -0.029993 11.786652 9.713295 11.885117 -6.588139 0.023264 -0.032334 11.715940 -8.736195 -44.212426 -58.795443 0.050317 0.015125 11.755995 0.866561 45.208165 -55.392141 0.050164 0.014801 11.743109 -0.445594 2.445719 7.488880 -0.001972 -0.024035 11.750652 0.000072 -0.000033 11.750675 
0.000000 0.000000 0.000000 0.000008 0.000000 -0.000000 -0.000000 0.000000 -0.000000 -0.000000 0.066767 0.000015 -0.003516 0.000000 -0.000022 -4.464629 3.824679 38.165198 0.133853 -0.698640 22.708830 0.231487 -0.650486 17.648053 -0.165439 -1.388974 7.525237 0.022481 -1.503738 -0.408861 0.143674 0.111086 12.117061 -12.308149 5.279788 -1.883657 2.016637 -0.069759 -10.234501 -0.030732 -0.001702 0.155990 11.003115 -2.938728 0.760690 0.000740 -0.000019 -0.003726 0.000101 -0.000137 0.000004 7.547014 -5.369503 -19.288702 -0.156940 -0.007509 -0.795871 0.711095 0.061512 3.615520 -9.425906 2.741266 4.945292 -0.000887 0.000006 -0.003709 -0.008661 0.000483 -0.038577 0.393785 1.089476 -12.547579 0.917530 -0.020777 6.784391 -1.534287 -0.225310 0.054196 -2.880829 2.877755 -8.114673 0.000078 -0.000113 -0.000057 -0.000052 -0.014927 0.015043 -0.008376 0.000137 0.012257 6.392739 0.113874 -1.221055 10.514606 -3.682471 3.173047 3.831905 1.007526 -26.689804 -3.219075 -2.973453 25.615976 -9.213299 -1.948139 4.626536 0.028739 -0.449764 11.005134 9.190896 -0.071320 -9.246627 3.844265 0.133269 1.768840 -1.002960 -0.004351 -0.069928 -0.782002 0.140320 -0.478845 -0.804180 0.123449 -0.482657 -3.395167 -2.860086 27.395499 13.975044 -5.135220 3.261316 -0.030970 0.463540 11.344413 -9.482220 -1.170377 -3.460187 -5.953883 -0.076729 0.715853 2.691519 2.076469 -0.752311 0.028342 0.072123 2.451898 -0.000914 0.100573 2.451955 2.158956 0.232384 -0.300320 5.284648 1.168222 -2.934728 6.523510 0.283725 1.851887 -0.190590 1.550824 -29.382736 -0.044976 0.001625 0.046335 7.547369 0.845639 -5.294890 5.072157 0.164461 -2.293078 4.783245 -1.232732 0.268889 -0.000029 0.000324 33.480068 -0.441786 -0.458728 -72.796143 -0.000060 -0.000072 -21.994003 0.000020 -0.000008 -0.026805 0.000002 -0.000016 0.012745 -0.000097 -0.000109 -34.639905 0.000036 0.000015 0.015166 0.000025 -0.000010 0.012721 -0.000051 -0.000053 -24.223462 0.000013 -0.000014 -0.000048 -0.073027 0.030628 0.020256 13.724100 7.845747 -4.977550 -9.964870 -18.994261 1.130799 0.024237 -0.029985 11.786699 9.929065 12.116933 -6.748169 0.023290 -0.032328 11.715895 -8.736194 -44.212426 -58.795450 0.050345 0.015170 11.756000 0.866560 45.208172 -55.392141 0.050182 0.014847 11.743099 -0.396970 2.370996 7.385898 -0.001937 -0.024076 11.750660 0.000072 -0.000033 11.750672 
